P2
128 99
255
0 0 0 0 0 0 0 0 0 0 0 0 0 0 0 0 0 0 0 0 0 0 0 0 0 0 0 0 0 0 0 0 0 0 0 0 0 0 0 0 0 0 0 0 0 0 0 0 0 0 0 0 0 0 0 0 0 0 0 0 0 0 0 0 0 0 0 0 0 0 0 0 0 0 0 0 0 0 0 0 0 0 0 0 0 0 0 0 0 0 0 0 0 0 0 0 0 0 0 0 0 0 0 0 0 0 0 0 0 0 0 0 0 0 0 0 0 0 0 0 0 0 0 0 0 0 0 0 
0 0 0 0 0 0 0 0 0 0 0 0 0 0 0 0 0 0 0 0 0 0 0 0 0 0 0 0 0 0 0 0 0 0 0 0 0 0 0 0 0 0 0 0 0 0 0 0 0 0 0 0 0 0 0 0 0 0 0 0 0 0 0 0 0 0 0 0 0 0 0 0 0 0 0 0 0 0 0 0 0 0 0 0 0 0 0 0 0 0 0 0 0 0 0 0 0 0 0 0 0 0 0 0 0 0 0 0 0 0 0 0 0 0 0 0 0 0 0 0 0 0 0 0 0 0 0 0 
0 0 0 0 0 0 0 0 0 0 0 0 0 0 0 0 0 0 0 0 0 0 0 0 0 0 0 0 0 0 0 0 0 0 0 0 0 0 0 0 0 0 0 0 0 0 0 0 0 0 0 1 2 2 1 0 0 0 0 0 0 0 0 0 0 0 0 0 0 0 0 0 0 0 0 0 0 0 0 0 0 0 0 0 0 0 0 0 0 0 0 0 0 0 0 0 0 0 0 0 0 0 0 0 0 0 0 0 0 0 0 0 0 0 0 0 0 0 0 0 0 0 0 0 0 0 0 0 
0 0 0 0 0 0 0 0 0 0 0 0 0 0 0 0 0 0 0 0 0 0 0 0 0 0 0 0 0 0 0 0 0 0 0 0 0 0 0 0 0 0 0 0 6 13 16 17 17 18 21 25 27 27 25 21 18 15 14 11 4 0 0 0 0 0 0 0 0 0 0 0 0 0 0 0 0 0 0 0 0 0 0 0 0 0 0 0 0 0 0 0 0 0 0 0 0 0 0 0 0 0 0 0 0 0 0 0 0 0 0 0 0 0 0 0 0 0 0 0 0 0 0 0 0 0 0 0 
0 0 0 0 0 0 0 0 0 0 0 0 0 0 0 0 0 0 0 0 0 0 0 0 0 0 0 0 0 0 0 0 0 0 0 0 0 0 0 0 4 12 19 23 24 33 53 76 100 122 140 152 159 160 156 144 126 104 79 54 33 21 16 10 1 0 0 0 0 0 0 0 0 0 0 0 0 0 0 0 0 0 0 0 0 0 0 0 0 0 0 0 0 0 0 0 0 0 0 0 0 0 0 0 0 0 0 0 0 0 0 0 0 0 0 0 0 0 0 0 0 0 0 0 0 0 0 0 
0 0 0 0 0 0 0 0 0 0 0 0 0 0 0 0 0 0 0 0 0 0 0 0 0 0 0 0 0 0 0 0 0 0 0 0 0 0 8 16 23 24 36 67 111 152 183 204 217 225 231 232 230 229 229 228 224 217 205 186 156 119 78 43 23 15 10 1 0 0 0 0 0 0 0 0 0 0 0 0 0 0 0 0 0 0 0 0 0 0 0 0 0 0 0 0 0 0 0 0 0 0 0 0 0 0 0 0 0 0 0 0 0 0 0 0 0 0 0 0 0 0 0 0 0 0 0 0 
0 0 0 0 0 0 0 0 0 0 0 0 0 0 0 0 0 0 0 0 0 0 0 0 0 0 0 0 0 0 0 0 0 0 0 0 8 20 24 25 51 102 155 195 219 231 238 243 250 255 255 255 255 255 255 255 255 252 243 235 228 217 197 165 123 76 38 18 13 1 0 0 0 0 0 0 0 0 0 0 0 0 0 0 0 0 0 0 0 0 0 0 0 0 0 0 0 0 0 0 0 0 0 0 0 0 0 0 0 0 0 0 0 0 0 0 0 0 0 0 0 0 0 0 0 0 0 0 
0 0 0 0 0 0 0 0 0 0 0 0 0 0 0 0 0 0 0 0 0 0 0 0 0 0 0 0 0 0 0 0 0 0 7 24 24 26 62 124 177 212 231 242 249 255 253 242 230 223 230 244 241 214 212 241 255 255 255 255 255 247 238 231 219 195 154 100 49 22 13 1 0 0 0 0 0 0 0 0 0 0 0 0 0 0 0 0 0 0 0 0 0 0 0 0 0 0 0 0 0 0 0 0 0 0 0 0 0 0 0 0 0 0 0 0 0 0 0 0 0 0 0 0 0 0 0 0 
0 0 0 0 0 0 0 0 0 0 0 0 0 0 0 0 0 0 0 0 0 0 0 0 0 0 0 0 0 0 0 0 4 27 25 23 58 128 184 215 230 243 253 255 255 242 214 185 162 147 143 147 139 127 130 139 159 206 252 255 255 255 255 254 246 238 227 208 165 102 45 23 10 0 0 0 0 0 0 0 0 0 0 0 0 0 0 0 0 0 0 0 0 0 0 0 0 0 0 0 0 0 0 0 0 0 0 0 0 0 0 0 0 0 0 0 0 0 0 0 0 0 0 0 0 0 0 0 
0 0 0 0 0 0 0 0 0 0 0 0 0 0 0 0 0 0 0 0 0 0 0 0 0 0 0 0 0 0 0 23 26 21 40 112 180 212 227 240 252 255 255 226 185 167 152 130 118 107 100 104 102 99 107 114 121 132 155 205 253 255 255 255 255 255 249 240 229 206 154 79 30 18 1 0 0 0 0 0 0 0 0 0 0 0 0 0 0 0 0 0 0 0 0 0 0 0 0 0 0 0 0 0 0 0 0 0 0 0 0 0 0 0 0 0 0 0 0 0 0 0 0 0 0 0 0 0 
0 0 0 0 0 0 0 0 0 0 0 0 0 0 0 0 0 0 0 0 0 0 0 0 0 0 0 0 0 10 28 22 25 83 164 207 225 239 251 255 255 241 186 168 160 147 133 120 110 98 92 99 100 99 103 110 116 121 129 142 166 209 250 255 255 255 255 255 252 243 229 194 122 45 22 5 0 0 0 0 0 0 0 0 0 0 0 0 0 0 0 0 0 0 0 0 0 0 0 0 0 0 0 0 0 0 0 0 0 0 0 0 0 0 0 0 0 0 0 0 0 0 0 0 0 0 0 0 
0 0 0 0 0 0 0 0 0 0 0 0 0 0 0 0 0 0 0 0 0 0 0 0 0 0 0 0 22 24 18 48 133 195 218 237 253 255 255 250 203 173 163 154 147 138 127 119 110 105 109 114 112 111 112 116 119 122 127 135 146 157 176 212 249 255 255 255 255 255 254 241 217 160 67 23 10 0 0 0 0 0 0 0 0 0 0 0 0 0 0 0 0 0 0 0 0 0 0 0 0 0 0 0 0 0 0 0 0 0 0 0 0 0 0 0 0 0 0 0 0 0 0 0 0 0 0 0 
0 0 0 0 0 0 0 0 0 0 0 0 0 0 0 0 0 0 0 0 0 0 0 0 0 0 4 26 20 19 76 163 208 231 250 255 255 255 223 177 166 161 154 149 140 132 126 118 117 118 115 113 113 115 122 125 125 123 126 130 134 146 157 169 184 215 251 255 255 255 255 255 246 223 177 85 24 12 0 0 0 0 0 0 0 0 0 0 0 0 0 0 0 0 0 0 0 0 0 0 0 0 0 0 0 0 0 0 0 0 0 0 0 0 0 0 0 0 0 0 0 0 0 0 0 0 0 0 
0 0 0 0 0 0 0 0 0 0 0 0 0 0 0 0 0 0 0 0 0 0 0 0 0 10 25 18 25 101 179 215 243 255 255 255 245 193 167 161 157 153 146 139 134 131 127 124 121 122 110 108 105 110 115 125 132 131 131 131 131 133 140 151 162 170 182 215 251 255 255 255 255 246 228 187 95 26 13 0 0 0 0 0 0 0 0 0 0 0 0 0 0 0 0 0 0 0 0 0 0 0 0 0 0 0 0 0 0 0 0 0 0 0 0 0 0 0 0 0 0 0 0 0 0 0 0 0 
0 0 0 0 0 0 0 0 0 0 0 0 0 0 0 0 0 0 0 0 0 0 0 0 13 22 16 34 119 188 222 250 255 255 253 212 171 160 160 157 151 147 145 140 134 130 117 115 117 111 107 107 106 111 112 112 125 137 139 137 135 132 131 134 139 150 160 166 176 211 250 255 255 255 248 232 195 105 29 12 0 0 0 0 0 0 0 0 0 0 0 0 0 0 0 0 0 0 0 0 0 0 0 0 0 0 0 0 0 0 0 0 0 0 0 0 0 0 0 0 0 0 0 0 0 0 0 0 
0 0 0 0 0 0 0 0 0 0 0 0 0 0 0 0 0 0 0 0 0 0 3 18 19 15 44 131 189 227 254 255 255 231 179 156 154 156 154 150 146 138 132 128 126 118 114 114 110 110 109 106 104 112 114 114 112 117 129 138 140 140 138 135 131 132 141 147 155 161 181 225 255 255 255 248 231 198 118 34 11 0 0 0 0 0 0 0 0 0 0 0 0 0 0 0 0 0 0 0 0 0 0 0 0 0 0 0 0 0 0 0 0 0 0 0 0 0 0 0 0 0 0 0 0 0 0 0 
0 0 0 0 0 0 0 0 0 0 0 0 0 0 0 0 0 0 0 0 0 5 16 16 16 56 141 188 231 255 255 255 203 159 147 147 148 149 146 140 133 133 135 131 119 111 110 106 108 108 108 102 102 110 112 113 112 111 111 115 119 120 128 136 136 131 126 132 140 146 151 160 201 247 255 255 252 233 196 125 37 8 0 0 0 0 0 0 0 0 0 0 0 0 0 0 0 0 0 0 0 0 0 0 0 0 0 0 0 0 0 0 0 0 0 0 0 0 0 0 0 0 0 0 0 0 0 0 
0 0 0 0 0 0 0 0 0 0 0 0 0 0 0 0 0 0 0 0 6 15 14 18 69 151 189 232 255 255 245 177 142 142 144 140 134 128 130 136 138 135 125 115 112 112 108 111 114 112 109 100 100 112 113 115 115 114 112 115 118 121 122 124 129 134 134 128 126 132 134 141 147 183 230 255 255 253 231 196 130 35 6 0 0 0 0 0 0 0 0 0 0 0 0 0 0 0 0 0 0 0 0 0 0 0 0 0 0 0 0 0 0 0 0 0 0 0 0 0 0 0 0 0 0 0 0 0 
0 0 0 0 0 0 0 0 0 0 0 0 0 0 0 0 0 0 0 5 15 12 19 77 153 189 226 255 255 238 164 133 135 134 128 121 121 128 130 127 119 115 116 114 115 112 107 110 110 106 107 98 100 109 108 110 112 112 112 112 114 115 117 120 119 118 123 134 131 122 118 122 130 138 168 220 255 255 252 226 191 119 27 3 0 0 0 0 0 0 0 0 0 0 0 0 0 0 0 0 0 0 0 0 0 0 0 0 0 0 0 0 0 0 0 0 0 0 0 0 0 0 0 0 0 0 0 0 
0 0 0 0 0 0 0 0 0 0 0 0 0 0 0 0 0 0 4 15 12 19 80 153 185 217 250 255 226 156 130 129 126 123 120 121 123 125 120 114 114 114 113 112 107 103 104 105 103 104 101 94 96 108 109 109 109 111 112 110 109 109 108 109 113 114 117 122 132 129 118 115 118 123 132 157 211 255 255 248 217 179 101 18 1 0 0 0 0 0 0 0 0 0 0 0 0 0 0 0 0 0 0 0 0 0 0 0 0 0 0 0 0 0 0 0 0 0 0 0 0 0 0 0 0 0 0 0 
0 0 0 0 0 0 0 0 0 0 0 0 0 0 0 0 0 1 14 12 18 76 145 178 209 246 255 222 153 128 123 120 116 119 122 120 119 116 113 114 110 108 106 102 101 103 104 102 104 101 93 93 95 106 109 111 113 112 111 111 110 106 105 103 104 109 112 119 124 126 123 115 113 116 123 129 148 205 255 255 237 203 160 76 10 0 0 0 0 0 0 0 0 0 0 0 0 0 0 0 0 0 0 0 0 0 0 0 0 0 0 0 0 0 0 0 0 0 0 0 0 0 0 0 0 0 0 0 
0 0 0 0 0 0 0 0 0 0 0 0 0 0 0 0 0 10 11 16 68 135 169 199 234 255 223 151 126 121 114 111 117 124 117 114 113 110 112 109 103 99 99 102 103 104 102 102 103 93 93 95 96 100 105 107 108 108 108 109 110 107 106 103 99 101 109 113 118 121 121 120 113 109 114 120 127 144 216 255 253 227 188 135 48 3 0 0 0 0 0 0 0 0 0 0 0 0 0 0 0 0 0 0 0 0 0 0 0 0 0 0 0 0 0 0 0 0 0 0 0 0 0 0 0 0 0 0 
0 0 0 0 0 0 0 0 0 0 0 0 0 0 0 0 5 11 14 55 124 156 189 224 253 231 151 123 118 109 110 117 120 116 113 112 111 112 108 101 98 100 103 103 102 98 98 98 93 90 92 94 94 97 98 97 100 101 99 98 101 103 103 101 97 95 99 110 112 116 116 115 116 114 109 113 118 123 142 230 255 247 211 167 104 23 1 0 0 0 0 0 0 0 0 0 0 0 0 0 0 0 0 0 0 0 0 0 0 0 0 0 0 0 0 0 0 0 0 0 0 0 0 0 0 0 0 0 
0 0 0 0 0 0 0 0 0 0 0 0 0 0 0 1 11 12 43 110 146 176 210 247 236 157 120 113 108 110 115 119 116 115 113 111 110 104 99 98 95 91 89 89 90 90 91 92 93 93 97 95 93 97 94 91 93 93 93 94 95 97 98 97 95 95 95 98 108 111 110 110 110 116 115 110 115 117 119 158 246 255 229 190 142 68 6 0 0 0 0 0 0 0 0 0 0 0 0 0 0 0 0 0 0 0 0 0 0 0 0 0 0 0 0 0 0 0 0 0 0 0 0 0 0 0 0 0 
0 0 0 0 0 0 0 0 0 0 0 0 0 0 0 6 10 25 89 131 161 194 232 239 179 124 108 106 108 116 119 115 114 111 108 105 102 98 96 91 86 85 88 89 88 88 89 91 93 95 100 98 93 95 92 91 90 90 90 92 92 91 95 97 98 95 94 95 100 106 105 107 108 108 118 114 112 112 114 120 193 254 241 206 165 107 27 1 0 0 0 0 0 0 0 0 0 0 0 0 0 0 0 0 0 0 0 0 0 0 0 0 0 0 0 0 0 0 0 0 0 0 0 0 0 0 0 0 
0 0 0 0 0 0 0 0 0 0 0 0 0 0 2 8 13 64 117 147 176 213 228 201 139 104 102 103 114 123 118 111 108 108 107 101 98 95 90 87 87 87 89 87 87 88 91 93 93 95 104 102 96 98 94 94 94 94 93 91 90 91 90 92 93 96 94 93 96 100 102 106 107 108 112 118 111 110 108 107 144 224 245 217 180 132 58 3 0 0 0 0 0 0 0 0 0 0 0 0 0 0 0 0 0 0 0 0 0 0 0 0 0 0 0 0 0 0 0 0 0 0 0 0 0 0 0 0 
0 0 0 0 0 0 0 0 0 0 0 0 0 0 5 8 35 98 131 158 195 216 198 169 113 97 98 108 121 123 113 107 105 105 102 95 92 90 90 88 88 88 88 88 90 92 95 96 95 97 104 104 99 98 87 88 94 96 93 93 90 91 91 90 89 92 94 93 93 97 97 103 108 106 109 120 116 108 105 99 117 184 229 225 193 151 90 15 0 0 0 0 0 0 0 0 0 0 0 0 0 0 0 0 0 0 0 0 0 0 0 0 0 0 0 0 0 0 0 0 0 0 0 0 0 0 0 0 
0 0 0 0 0 0 0 0 0 0 0 0 0 0 7 14 69 114 144 173 206 190 183 136 98 93 98 114 123 118 108 103 101 103 99 91 91 92 91 88 87 86 89 90 91 94 95 95 96 92 93 99 100 89 83 84 86 95 94 91 89 90 90 91 91 92 95 96 94 94 96 100 107 107 111 118 122 110 100 94 101 162 208 223 201 163 113 33 1 0 0 0 0 0 0 0 0 0 0 0 0 0 0 0 0 0 0 0 0 0 0 0 0 0 0 0 0 0 0 0 0 0 0 0 0 0 0 0 
0 0 0 0 0 0 0 0 0 0 0 0 0 2 6 33 93 126 153 188 199 178 165 113 91 91 103 118 121 110 107 105 103 101 93 91 93 92 89 87 88 88 90 91 90 91 92 93 90 87 89 93 100 89 84 83 86 89 83 87 88 88 89 91 94 93 94 98 97 93 94 99 106 106 108 120 125 112 96 91 91 147 191 222 207 172 127 52 2 0 0 0 0 0 0 0 0 0 0 0 0 0 0 0 0 0 0 0 0 0 0 0 0 0 0 0 0 0 0 0 0 0 0 0 0 0 0 0 
0 0 0 0 0 0 0 0 0 0 0 0 0 3 8 57 108 135 163 196 174 166 143 98 88 91 105 118 112 109 108 107 105 98 89 92 96 92 89 88 91 93 91 91 90 90 86 88 89 88 88 92 99 92 86 83 85 84 84 84 83 87 88 90 96 96 96 98 101 98 94 99 105 106 108 120 126 111 97 88 84 132 178 215 210 177 138 70 5 0 0 0 0 0 0 0 0 0 0 0 0 0 0 0 0 0 0 0 0 0 0 0 0 0 0 0 0 0 0 0 0 0 0 0 0 0 0 0 
0 0 0 0 0 0 0 0 0 0 0 0 0 5 16 78 117 144 176 186 153 150 127 89 84 96 110 114 106 108 108 109 104 96 94 97 96 90 89 93 96 92 88 86 91 89 86 89 89 87 86 87 97 89 81 80 86 88 87 87 87 88 88 92 95 99 100 100 101 102 99 99 105 108 107 116 121 113 98 87 81 121 168 209 212 180 146 86 9 0 0 0 0 0 0 0 0 0 0 0 0 0 0 0 0 0 0 0 0 0 0 0 0 0 0 0 0 0 0 0 0 0 0 0 0 0 0 0 
0 0 0 0 0 0 0 0 0 0 0 0 0 5 30 94 125 155 181 160 139 139 115 84 86 102 107 110 104 106 108 104 102 99 98 98 93 92 95 95 87 81 86 92 91 89 88 86 83 80 81 82 95 82 80 83 85 86 82 86 93 93 91 93 98 99 102 103 102 102 103 103 104 107 109 112 114 113 101 85 78 117 169 202 214 187 152 101 15 0 0 0 0 0 0 0 0 0 0 0 0 0 0 0 0 0 0 0 0 0 0 0 0 0 0 0 0 0 0 0 0 0 0 0 0 0 0 0 
0 0 0 0 0 0 0 0 0 0 0 0 1 6 42 103 132 163 170 144 132 132 114 82 89 100 104 107 103 102 105 103 102 102 98 99 95 96 95 87 79 85 85 88 90 90 84 79 82 85 86 89 90 84 82 81 81 81 85 87 87 94 94 93 96 100 99 108 109 104 103 104 105 106 110 114 107 105 102 86 74 112 164 193 217 194 161 115 24 0 0 0 0 0 0 0 0 0 0 0 0 0 0 0 0 0 0 0 0 0 0 0 0 0 0 0 0 0 0 0 0 0 0 0 0 0 0 0 
0 0 0 0 0 0 0 0 0 0 0 0 2 6 53 110 141 169 160 140 129 130 114 81 89 96 102 106 99 97 103 104 105 103 101 101 99 97 92 80 84 85 84 84 88 85 84 84 85 86 89 91 89 85 84 82 83 87 86 88 84 85 91 90 93 96 100 103 112 110 106 105 107 107 108 115 102 97 100 87 75 114 163 193 219 203 170 129 33 1 0 0 0 0 0 0 0 0 0 0 0 0 0 0 0 0 0 0 0 0 0 0 0 0 0 0 0 0 0 0 0 0 0 0 0 0 0 0 
0 0 0 0 0 0 0 0 0 0 0 0 2 8 62 116 147 168 158 143 130 128 114 84 88 93 99 103 91 95 105 106 106 103 101 105 100 97 99 90 91 87 83 85 81 82 84 86 84 84 88 91 89 82 80 82 78 82 87 87 84 86 90 91 90 94 93 106 118 115 110 108 108 109 108 113 99 94 98 87 76 119 162 192 218 210 179 142 45 2 0 0 0 0 0 0 0 0 0 0 0 0 0 0 0 0 0 0 0 0 0 0 0 0 0 0 0 0 0 0 0 0 0 0 0 0 0 0 
0 0 0 0 0 0 0 0 0 0 0 0 3 10 69 123 155 173 160 147 135 129 116 89 89 92 98 98 88 93 108 107 106 105 104 107 106 103 106 109 106 96 88 87 87 83 87 90 84 86 90 88 88 78 78 78 77 77 87 87 84 87 89 88 92 98 105 115 114 114 117 118 114 111 112 117 101 94 93 85 81 120 158 189 221 213 185 152 57 3 0 0 0 0 0 0 0 0 0 0 0 0 0 0 0 0 0 0 0 0 0 0 0 0 0 0 0 0 0 0 0 0 0 0 0 0 0 0 
0 0 0 0 0 0 0 0 0 0 0 0 3 11 74 129 162 179 162 151 139 132 118 93 89 94 96 94 88 95 113 108 108 110 113 109 102 93 89 90 86 86 93 97 95 91 86 91 88 88 91 89 93 80 80 81 79 76 85 82 84 89 95 98 92 86 84 83 87 91 98 107 122 128 119 123 115 98 92 84 88 118 153 178 217 219 190 156 71 5 0 0 0 0 0 0 0 0 0 0 0 0 0 0 0 0 0 0 0 0 0 0 0 0 0 0 0 0 0 0 0 0 0 0 0 0 0 0 
0 0 0 0 0 0 0 0 0 0 0 0 4 12 78 134 166 181 159 152 143 136 120 97 93 96 96 87 86 102 117 111 117 119 104 95 86 77 71 74 75 75 76 81 90 99 93 85 81 84 89 89 98 88 83 78 74 70 78 81 88 98 93 85 80 76 77 75 76 78 81 84 97 120 136 134 133 111 92 84 92 117 143 166 206 222 196 161 84 6 0 0 0 0 0 0 0 0 0 0 0 0 0 0 0 0 0 0 0 0 0 0 0 0 0 0 0 0 0 0 0 0 0 0 0 0 0 0 
0 0 0 0 0 0 0 0 0 0 0 0 5 13 82 140 171 179 160 151 142 136 125 106 98 97 98 85 88 109 121 121 124 102 86 78 75 71 70 75 75 74 74 75 78 84 93 90 81 83 87 88 96 95 85 79 75 77 79 85 98 84 79 77 79 81 81 82 84 86 85 81 83 98 129 152 143 124 93 86 92 112 133 154 184 218 199 165 96 9 0 0 0 0 0 0 0 0 0 0 0 0 0 0 0 0 0 0 0 0 0 0 0 0 0 0 0 0 0 0 0 0 0 0 0 0 0 0 
0 0 0 0 0 0 0 0 0 0 0 0 6 14 86 144 172 179 155 147 137 132 120 105 100 94 101 96 95 115 129 129 102 81 78 78 77 75 79 83 80 76 73 75 77 81 83 90 84 87 89 92 101 103 101 92 86 84 78 94 87 76 74 74 79 82 83 85 85 86 90 91 91 100 121 154 150 128 103 88 89 107 125 142 164 207 201 167 108 15 0 0 0 0 0 0 0 0 0 0 0 0 0 0 0 0 0 0 0 0 0 0 0 0 0 0 0 0 0 0 0 0 0 0 0 0 0 0 
0 0 0 0 0 0 0 0 0 0 0 0 7 14 88 146 176 182 147 137 131 128 115 99 96 96 100 107 119 122 137 120 86 79 80 78 76 77 81 80 80 78 75 75 74 76 83 85 86 86 92 102 112 109 117 98 88 82 80 97 77 69 69 73 80 83 85 86 87 90 91 91 97 112 123 130 141 127 114 91 87 102 117 129 148 191 200 168 116 22 0 0 0 0 0 0 0 0 0 0 0 0 0 0 0 0 0 0 0 0 0 0 0 0 0 0 0 0 0 0 0 0 0 0 0 0 0 0 
0 0 0 0 0 0 0 0 0 0 0 0 7 15 91 149 178 184 135 128 127 124 114 93 91 95 101 107 123 135 146 117 97 88 85 81 79 79 78 78 76 78 77 75 74 75 81 87 90 93 100 105 119 111 124 99 88 82 90 91 71 67 71 77 82 85 84 86 89 92 94 92 100 105 107 111 120 125 115 91 84 100 112 116 132 177 199 169 122 31 1 0 0 0 0 0 0 0 0 0 0 0 0 0 0 0 0 0 0 0 0 0 0 0 0 0 0 0 0 0 0 0 0 0 0 0 0 0 
0 0 0 0 0 0 0 0 0 0 0 0 7 15 92 150 180 184 130 126 124 120 109 89 83 91 102 108 119 124 132 118 109 99 90 87 86 83 80 79 78 79 78 76 75 76 80 85 86 90 100 110 112 107 115 112 97 92 91 81 68 69 75 81 83 86 84 83 85 88 91 91 95 97 101 104 110 121 112 92 81 91 102 105 116 159 193 170 126 38 1 0 0 0 0 0 0 0 0 0 0 0 0 0 0 0 0 0 0 0 0 0 0 0 0 0 0 0 0 0 0 0 0 0 0 0 0 0 
0 0 0 0 0 0 0 0 0 0 0 0 7 16 95 153 184 181 126 122 119 113 101 81 76 87 98 107 111 111 115 104 96 93 88 84 83 81 78 74 75 76 77 77 77 77 78 84 90 92 98 96 98 103 102 108 101 98 90 75 71 73 77 78 79 80 78 77 80 84 85 87 93 98 100 98 110 122 114 96 80 89 94 99 107 139 185 170 129 45 2 0 0 0 0 0 0 0 0 0 0 0 0 0 0 0 0 0 0 0 0 0 0 0 0 0 0 0 0 0 0 0 0 0 0 0 0 0 
0 0 0 0 0 0 0 0 0 0 0 0 7 16 94 153 184 174 119 115 108 103 91 73 73 83 96 112 112 106 106 100 88 90 83 79 78 79 78 74 72 73 75 77 78 78 78 79 89 94 105 100 92 94 96 108 103 104 96 76 74 74 78 74 71 73 76 78 80 82 85 85 89 94 94 95 110 122 112 100 85 86 88 93 97 122 164 168 132 50 2 0 0 0 0 0 0 0 0 0 0 0 0 0 0 0 0 0 0 0 0 0 0 0 0 0 0 0 0 0 0 0 0 0 0 0 0 0 
0 0 0 0 0 0 0 0 0 0 0 0 8 17 92 153 184 165 109 105 99 94 81 66 70 82 94 111 115 107 102 99 88 86 80 76 77 75 75 72 73 75 74 75 75 76 78 74 76 93 113 115 100 89 92 86 114 101 91 79 79 77 78 69 70 73 75 78 79 80 83 83 86 93 91 95 110 117 107 102 96 87 89 93 98 114 134 156 132 54 2 0 0 0 0 0 0 0 0 0 0 0 0 0 0 0 0 0 0 0 0 0 0 0 0 0 0 0 0 0 0 0 0 0 0 0 0 0 
0 0 0 0 0 0 0 0 0 0 0 0 7 16 89 152 183 151 106 97 91 87 79 66 70 82 98 107 113 107 101 99 91 83 80 78 77 76 75 75 71 72 75 78 74 78 81 73 71 86 104 115 90 78 82 69 92 108 79 83 79 76 71 69 74 74 76 78 78 80 81 81 85 89 88 98 110 110 103 102 101 90 89 91 99 112 129 154 131 55 2 0 0 0 0 0 0 0 0 0 0 0 0 0 0 0 0 0 0 0 0 0 0 0 0 0 0 0 0 0 0 0 0 0 0 0 0 0 
0 0 0 0 0 0 0 0 0 0 0 0 7 16 83 149 179 137 105 94 89 88 79 65 72 85 101 102 109 108 105 101 92 83 79 78 78 76 76 77 74 71 71 74 74 77 79 69 66 83 106 104 71 65 74 64 74 122 72 80 78 75 68 73 74 75 76 77 78 81 81 80 86 87 87 104 116 111 100 100 104 91 89 88 97 109 129 157 125 52 2 0 0 0 0 0 0 0 0 0 0 0 0 0 0 0 0 0 0 0 0 0 0 0 0 0 0 0 0 0 0 0 0 0 0 0 0 0 
0 0 0 0 0 0 0 0 0 0 0 0 5 14 76 145 175 131 101 94 89 88 81 65 70 85 102 101 106 108 109 104 92 87 79 75 77 79 77 76 75 74 69 68 71 74 77 67 68 87 103 76 67 65 75 63 64 110 94 75 73 70 69 76 75 73 76 78 78 81 79 80 87 84 86 104 121 105 94 101 104 90 89 87 96 106 129 154 118 47 1 0 0 0 0 0 0 0 0 0 0 0 0 0 0 0 0 0 0 0 0 0 0 0 0 0 0 0 0 0 0 0 0 0 0 0 0 0 
0 0 0 0 0 0 0 0 0 0 0 0 4 14 70 139 172 134 103 95 89 87 83 68 69 81 99 102 105 106 110 105 90 88 80 81 80 80 80 78 76 74 71 68 70 73 74 63 72 96 96 70 65 70 77 65 62 81 112 77 71 66 68 75 75 74 76 77 76 78 77 81 85 80 85 104 115 100 91 101 105 91 91 88 93 104 132 147 110 42 1 0 0 0 0 0 0 0 0 0 0 0 0 0 0 0 0 0 0 0 0 0 0 0 0 0 0 0 0 0 0 0 0 0 0 0 0 0 
0 0 0 0 0 0 0 0 0 0 0 0 2 14 63 132 167 141 106 95 90 86 83 72 66 75 95 101 106 106 110 104 87 85 81 81 80 80 81 81 77 72 68 68 66 69 69 67 84 101 80 71 67 74 81 67 66 64 105 88 84 74 70 75 75 76 77 75 74 76 77 84 81 77 85 103 107 99 91 101 106 90 92 86 89 102 136 139 100 37 1 0 0 0 0 0 0 0 0 0 0 0 0 0 0 0 0 0 0 0 0 0 0 0 0 0 0 0 0 0 0 0 0 0 0 0 0 0 
0 0 0 0 0 0 0 0 0 5 4 0 0 11 55 122 159 143 109 94 88 85 84 75 64 71 89 102 107 105 110 100 88 83 82 80 81 79 79 79 79 76 70 66 73 83 81 79 90 90 74 69 68 79 83 71 68 65 83 104 101 96 87 81 79 79 81 78 76 77 80 84 78 76 87 101 101 97 94 105 108 92 89 85 86 104 137 130 89 32 1 0 0 0 0 0 0 0 0 0 0 0 0 0 0 0 0 0 0 0 0 0 0 0 0 0 0 0 0 0 0 0 0 0 0 0 0 0 
0 0 0 0 0 0 0 0 0 2 8 3 0 9 46 111 153 142 108 94 86 86 86 80 64 66 88 104 106 103 108 102 87 82 83 80 81 79 78 79 85 86 82 74 76 80 90 81 98 81 68 66 69 85 81 69 70 70 73 110 110 109 95 88 83 77 78 81 77 76 76 81 78 77 88 100 98 91 94 111 116 96 86 84 85 105 138 122 80 28 0 0 0 0 0 0 0 0 0 0 0 0 0 0 0 0 0 0 0 0 0 0 0 0 0 0 0 0 0 0 0 0 0 0 0 0 0 0 
0 0 0 0 0 0 0 0 0 1 4 8 2 6 37 99 144 140 104 91 84 84 88 84 70 63 85 105 107 105 107 105 90 82 83 81 78 79 79 80 84 83 77 80 91 102 95 85 98 72 74 71 71 89 85 70 66 70 78 110 109 99 92 99 101 95 90 86 79 76 75 81 86 92 95 104 101 98 99 121 128 106 87 84 88 113 138 113 73 23 0 0 0 0 0 0 0 0 0 0 0 0 0 0 0 0 0 0 0 0 0 0 0 0 0 0 0 0 0 0 0 0 0 0 0 0 0 0 
0 0 0 0 0 0 0 0 0 0 2 9 3 7 29 87 135 143 105 93 88 87 88 86 77 63 86 104 108 110 116 117 106 88 83 82 78 80 86 85 86 87 88 92 88 88 83 89 97 75 73 74 71 94 85 69 67 65 72 100 119 101 94 93 99 106 119 115 113 113 117 112 110 111 119 116 102 95 109 132 133 121 93 85 97 125 137 102 66 16 0 0 0 7 3 0 0 0 0 0 0 0 0 0 0 0 0 0 0 0 0 0 0 0 0 0 0 0 0 0 0 0 0 0 0 0 0 0 
0 0 0 0 0 0 0 0 0 0 1 8 5 6 23 76 127 149 111 99 95 87 85 87 81 74 87 102 107 110 118 118 122 125 109 100 99 99 100 99 97 90 78 79 89 86 81 90 98 73 73 78 74 92 84 64 63 66 71 104 116 93 88 91 98 110 136 139 131 132 135 140 139 122 113 117 114 104 117 133 132 124 112 97 98 136 124 96 61 10 2 1 4 2 0 0 0 0 0 0 0 0 0 0 0 0 0 0 0 0 0 0 0 0 0 0 0 0 0 0 0 0 0 0 0 0 0 0 
0 0 0 0 0 0 0 0 0 0 1 7 5 7 18 68 118 153 132 102 95 82 82 87 90 92 91 100 107 111 112 110 110 115 119 120 119 105 99 96 94 88 86 88 85 81 82 90 96 77 76 80 78 96 87 66 63 70 85 111 109 101 90 90 97 114 133 134 132 139 137 120 113 101 108 111 123 128 132 133 134 130 119 114 124 136 107 91 53 7 2 2 4 1 0 0 0 0 0 0 0 0 0 0 0 0 0 0 0 0 0 0 0 0 0 0 0 0 0 0 0 0 0 0 0 0 0 0 
0 0 0 0 0 0 0 0 0 0 0 7 6 8 13 57 107 146 152 109 96 82 86 100 107 97 98 101 101 108 115 119 122 119 113 115 113 110 108 103 97 88 85 78 78 80 82 87 94 82 78 78 81 98 84 70 69 80 94 108 106 101 94 91 104 118 134 135 123 129 119 113 119 125 121 124 126 138 157 152 149 149 142 145 150 132 95 86 42 5 1 2 2 0 0 0 0 0 0 0 0 0 0 0 0 0 0 0 0 0 0 0 0 0 0 0 0 0 0 0 0 0 0 0 0 0 0 0 
0 0 0 0 0 0 0 0 0 0 0 7 7 9 12 47 98 138 156 131 103 93 107 110 118 116 106 107 103 100 119 134 131 125 122 125 124 124 113 99 90 81 84 79 75 78 84 96 98 82 81 77 71 96 85 74 72 84 97 98 107 95 91 90 102 119 128 134 131 131 134 135 132 126 115 122 125 136 146 146 170 181 170 180 185 119 105 80 27 5 3 2 1 0 0 0 0 0 0 0 0 0 0 0 0 0 0 0 0 0 0 0 0 0 0 0 0 0 0 0 0 0 0 0 0 0 0 0 
0 0 0 0 0 0 0 0 0 0 0 7 8 7 8 34 92 133 151 150 129 126 128 133 140 142 129 116 110 104 113 127 123 123 119 120 128 126 113 93 89 87 87 81 82 83 90 96 87 77 76 77 80 104 83 70 68 76 91 92 100 95 92 98 104 110 115 123 132 137 138 134 123 115 124 127 129 134 146 151 168 189 198 176 156 112 103 68 15 5 4 1 1 0 0 0 0 0 0 0 0 0 0 0 0 0 0 0 0 0 0 0 0 0 0 0 0 0 0 0 0 0 0 0 0 0 0 0 
0 0 0 0 0 0 0 0 0 0 0 4 10 6 6 11 55 112 142 148 161 179 178 165 169 159 138 120 115 114 130 138 130 118 121 109 119 122 117 97 90 90 92 86 84 82 89 93 86 77 80 82 82 102 98 78 66 69 76 91 94 91 102 103 106 110 110 117 124 128 116 121 119 112 120 140 142 139 144 154 168 174 174 143 119 105 100 76 16 4 6 2 2 0 0 0 0 0 0 0 0 0 0 0 0 0 0 0 0 0 0 0 0 0 0 0 0 0 0 0 0 0 0 0 0 0 0 0 
0 0 0 0 0 0 0 0 0 0 0 5 7 4 5 9 34 100 139 151 162 198 177 174 172 164 147 131 111 106 121 128 132 126 124 123 127 125 112 95 92 94 94 89 85 86 95 93 80 71 71 75 81 96 91 82 63 65 73 82 90 87 86 99 106 108 113 121 127 119 108 109 105 109 124 136 130 131 132 141 156 169 154 115 94 101 97 54 7 4 6 2 2 0 0 0 0 0 0 0 0 0 0 0 0 0 0 0 0 0 0 0 0 0 0 0 0 0 0 0 0 0 0 0 0 0 0 0 
0 0 0 0 0 0 0 0 0 0 0 5 5 4 3 8 21 80 130 140 145 160 171 153 173 165 142 130 120 116 115 125 126 134 131 126 123 123 116 110 99 95 96 96 85 83 98 90 79 78 75 70 68 91 104 95 69 71 81 84 90 96 93 95 89 88 106 117 123 125 121 110 107 121 134 137 130 137 131 129 141 146 116 101 107 108 88 29 5 3 5 4 2 0 0 0 0 0 0 0 0 0 0 0 0 0 0 0 0 0 0 0 0 0 0 0 0 0 0 0 0 0 0 0 0 0 0 0 
0 0 0 0 0 0 0 0 0 0 0 4 3 4 2 7 16 55 117 134 131 130 148 147 137 134 132 130 128 131 119 116 121 127 131 121 117 116 120 115 95 93 90 82 82 88 103 92 91 98 91 81 77 87 109 116 82 81 90 86 97 105 105 109 94 75 79 90 99 104 112 108 107 123 132 136 135 138 130 126 117 120 112 96 98 97 64 14 6 4 5 2 2 1 0 0 0 0 0 0 0 0 0 0 0 0 0 0 0 0 0 0 0 0 0 0 0 0 0 0 0 0 0 0 0 0 0 0 
0 0 0 0 0 0 0 0 0 0 0 4 3 3 3 8 14 31 96 119 113 114 132 135 136 124 119 117 121 132 136 116 107 107 125 128 116 121 120 96 80 77 87 91 90 93 114 101 110 110 107 97 86 87 117 126 98 91 95 101 103 109 115 117 106 79 69 70 78 90 98 109 111 117 130 140 148 142 137 129 123 119 98 79 84 90 37 9 4 4 3 1 2 2 0 0 0 0 0 0 0 0 0 0 0 0 0 0 0 0 0 0 0 0 0 0 0 0 0 0 0 0 0 0 0 0 0 0 
0 0 0 0 0 0 0 0 0 0 0 3 3 3 1 7 14 17 70 105 99 109 124 132 122 122 117 111 120 137 144 128 98 101 119 124 122 117 112 86 68 82 88 90 94 100 111 116 115 115 124 124 107 106 138 131 108 99 108 111 104 114 117 118 110 90 72 68 77 94 99 106 101 114 129 138 151 145 169 151 127 96 80 64 75 69 18 9 5 5 3 0 2 2 0 0 0 0 0 0 0 0 0 0 0 0 0 0 0 0 0 0 0 0 0 0 0 0 0 0 0 0 0 0 0 0 0 0 
0 0 0 0 0 0 0 0 0 0 0 2 3 3 1 4 12 13 42 98 113 109 122 134 136 129 122 123 130 134 139 119 97 97 104 108 107 102 95 84 78 86 90 95 106 113 114 126 136 134 139 148 157 164 162 145 137 140 131 123 123 134 131 124 113 94 78 74 83 103 96 94 110 109 124 134 145 151 179 160 110 82 68 68 83 48 11 11 5 6 4 1 2 2 0 0 0 0 0 0 0 0 0 0 0 0 0 0 0 0 0 0 0 0 0 0 0 0 0 0 0 0 0 0 0 0 0 0 
0 0 0 0 0 0 0 0 0 0 0 1 4 3 1 4 10 13 24 84 107 98 107 115 145 148 149 134 139 135 141 128 110 105 98 101 94 80 76 91 91 98 97 101 116 128 126 133 148 149 150 160 177 187 194 182 168 160 141 132 133 149 158 143 123 113 108 100 103 104 88 93 110 108 112 135 135 160 166 145 100 74 62 69 79 29 9 10 5 5 4 0 2 2 0 0 0 0 0 0 0 0 0 0 0 0 0 0 0 0 0 0 0 0 0 0 0 0 0 0 0 0 0 0 0 0 0 0 
0 0 0 0 0 0 0 0 0 0 1 2 5 2 2 4 10 12 14 59 102 102 95 95 133 159 163 151 139 128 141 138 118 109 101 97 93 84 80 88 118 119 115 114 122 139 145 145 155 144 144 151 151 154 165 168 163 150 132 131 136 152 162 159 142 137 132 120 125 95 81 85 100 106 101 118 128 171 148 124 97 88 71 82 68 18 8 8 4 4 4 1 3 2 0 0 0 0 0 0 0 0 0 0 0 0 0 0 0 0 0 0 0 0 0 0 0 0 0 0 0 0 0 0 0 0 0 0 
0 0 0 0 0 0 0 0 0 0 1 3 4 2 1 4 8 9 11 38 83 97 99 98 116 147 161 166 144 113 119 137 124 109 93 95 99 101 104 110 119 137 140 130 136 140 142 155 153 148 139 149 146 158 154 154 154 154 134 136 141 151 174 169 166 160 147 147 132 94 81 80 94 105 102 107 128 164 135 102 83 80 94 83 57 15 7 6 4 3 3 1 2 2 1 0 0 0 0 0 0 0 0 0 0 0 0 0 0 0 0 0 0 0 0 0 0 0 0 0 0 0 0 0 0 0 0 0 
0 0 0 0 0 0 0 0 0 0 0 4 12 8 2 3 7 8 11 27 70 100 109 98 101 121 152 161 155 112 104 116 125 108 90 88 94 99 103 112 122 138 156 155 148 151 154 162 156 154 150 161 158 161 154 142 152 161 138 143 144 152 167 177 175 163 151 155 137 94 77 85 100 109 115 124 129 156 131 104 76 69 88 85 50 15 6 4 5 3 2 2 2 1 1 0 0 0 0 0 0 0 0 0 0 0 0 0 0 0 0 0 0 0 0 0 0 0 0 0 0 0 0 0 0 0 0 0 
0 0 0 0 0 0 0 0 0 0 0 3 11 11 8 6 7 10 13 20 56 87 104 104 99 99 132 141 171 127 98 98 111 97 87 88 91 98 100 103 111 130 150 161 163 162 168 165 164 162 159 169 165 167 158 127 138 153 133 128 136 155 157 189 188 180 167 166 144 93 80 84 94 100 136 149 156 170 143 91 74 74 88 77 36 14 4 3 4 2 2 2 4 3 2 0 0 0 0 0 0 0 0 0 0 0 0 0 0 0 0 0 0 0 0 0 0 0 0 0 0 0 0 0 0 0 0 0 
0 0 0 0 0 0 0 0 0 0 0 2 10 10 9 7 8 11 15 16 32 73 102 104 92 100 117 145 168 139 111 107 106 88 80 88 93 93 92 93 99 122 145 151 159 163 161 162 163 156 161 176 168 173 144 106 111 128 127 121 135 162 174 188 207 192 172 165 142 101 79 84 97 116 139 133 167 160 142 90 67 68 70 56 19 13 6 4 4 4 3 4 5 3 2 0 0 0 0 0 0 0 0 0 0 0 0 0 0 0 0 0 0 0 0 0 0 0 0 0 0 0 0 0 0 0 0 0 
0 0 0 0 0 0 0 0 0 0 0 2 10 10 8 8 8 9 13 15 17 45 90 94 92 91 112 146 166 163 134 115 109 96 82 81 80 79 83 93 109 127 142 144 140 152 156 155 156 144 158 158 143 170 165 124 118 128 128 119 147 173 167 203 210 192 174 175 162 119 97 93 120 137 127 121 129 104 100 67 59 78 77 34 11 8 8 5 4 5 4 5 11 5 2 0 0 0 0 0 0 0 0 0 0 0 0 0 0 0 0 0 0 0 0 0 0 0 0 0 0 0 0 0 0 0 0 0 
0 0 0 0 0 0 0 0 0 0 0 0 9 10 6 5 5 5 9 14 20 27 64 85 82 77 102 145 148 156 145 118 105 107 94 88 88 94 101 111 112 164 174 170 148 165 182 194 188 175 170 158 158 187 189 162 149 152 155 150 163 174 194 204 197 183 171 173 171 145 129 130 123 111 85 81 90 86 87 63 82 81 49 16 10 1 1 3 4 4 4 5 7 4 0 0 0 0 0 0 0 0 0 0 0 0 0 0 0 0 0 0 0 0 0 0 0 0 0 0 0 0 0 0 0 0 0 0 
0 0 0 0 0 0 0 0 0 0 0 0 2 6 4 2 2 2 4 10 17 21 35 75 78 71 85 101 95 126 124 113 104 108 102 93 104 107 120 144 167 190 203 190 185 201 207 220 185 174 180 180 178 179 176 167 163 172 178 185 182 192 220 229 202 179 177 225 145 132 148 146 103 81 75 81 85 82 80 65 66 46 28 21 12 1 0 0 1 2 4 6 6 0 0 0 0 0 0 0 0 0 0 0 0 0 0 0 0 0 0 0 0 0 0 0 0 0 0 0 0 0 0 0 0 0 0 0 
0 0 0 0 0 0 0 0 0 0 0 0 0 2 2 1 1 0 0 6 13 20 23 43 73 75 58 50 61 73 90 95 99 99 99 102 110 134 163 180 190 185 193 167 184 178 161 173 166 152 159 165 155 154 150 142 144 140 147 161 161 183 214 222 176 218 186 184 157 142 123 103 85 76 77 93 99 88 65 44 39 39 35 24 17 0 0 0 0 0 1 5 6 0 0 0 0 0 0 0 0 0 0 0 0 0 0 0 0 0 0 0 0 0 0 0 0 0 0 0 0 0 0 0 0 0 0 0 
0 0 0 0 0 0 0 0 0 0 0 0 0 1 4 4 3 2 2 3 9 13 19 22 36 48 34 41 62 61 64 59 72 74 73 83 80 74 77 76 89 112 124 127 123 128 132 114 126 101 98 109 113 109 105 102 89 82 96 94 93 104 95 142 138 171 129 82 63 61 54 62 60 55 55 74 82 79 48 29 28 25 19 7 2 0 2 2 1 1 1 7 4 0 0 0 0 0 0 0 0 0 0 0 0 0 0 0 0 0 0 0 0 0 0 0 0 0 0 0 0 0 0 0 0 0 0 0 
0 0 0 0 0 0 0 0 0 0 0 0 0 0 2 2 2 2 2 0 5 9 13 16 21 22 22 33 61 63 60 60 57 60 59 59 65 59 66 68 78 79 73 74 82 88 78 67 70 73 58 73 87 88 86 84 68 57 70 70 78 88 77 71 71 90 86 86 97 95 61 62 62 54 52 73 84 78 47 29 28 24 15 6 2 0 1 1 1 2 2 3 1 0 0 0 0 0 0 0 0 0 0 0 0 0 0 0 0 0 0 0 0 0 0 0 0 0 0 0 0 0 0 0 0 0 0 0 
0 0 0 0 0 0 0 0 0 0 0 0 0 0 0 0 0 0 0 0 3 8 9 14 20 26 27 35 65 73 65 64 65 67 66 62 69 86 106 119 127 137 108 100 101 103 97 97 102 87 73 86 92 93 92 88 81 67 84 97 96 101 91 84 95 113 83 67 70 68 79 82 77 71 71 86 93 83 47 32 27 23 13 9 1 0 0 0 0 0 1 0 0 0 0 0 0 0 0 0 0 0 0 0 0 0 0 0 0 0 0 0 0 0 0 0 0 0 0 0 0 0 0 0 0 0 0 0 
0 0 0 0 0 0 0 0 0 0 0 0 0 0 0 0 0 0 0 0 0 3 4 7 14 28 35 43 74 87 77 71 75 83 84 87 103 108 107 135 156 181 158 144 141 169 173 169 156 130 119 125 120 119 116 125 116 109 113 127 134 146 132 140 152 158 118 115 98 120 118 108 90 79 76 80 81 74 45 33 23 16 9 7 0 0 0 0 0 0 0 0 0 0 0 0 0 0 0 0 0 0 0 0 0 0 0 0 0 0 0 0 0 0 0 0 0 0 0 0 0 0 0 0 0 0 0 0 
0 0 0 0 0 0 0 0 0 0 0 0 0 0 0 0 0 0 0 0 0 1 3 4 8 23 28 35 61 76 65 63 70 76 87 84 96 109 129 112 157 173 186 176 178 189 175 169 147 169 173 159 153 161 164 161 159 165 156 151 142 150 160 153 168 168 148 120 140 149 130 129 101 75 55 65 75 51 27 20 12 8 5 1 0 0 0 0 0 0 0 0 0 0 0 0 0 0 0 0 0 0 0 0 0 0 0 0 0 0 0 0 0 0 0 0 0 0 0 0 0 0 0 0 0 0 0 0 
0 0 0 0 0 0 0 0 0 0 0 0 0 0 0 0 0 0 0 0 0 0 1 3 7 16 26 34 51 74 75 70 71 72 74 70 78 93 94 90 127 121 124 105 118 142 162 181 162 139 126 123 131 123 126 114 124 127 130 127 122 131 115 126 141 103 130 141 150 154 111 69 52 48 57 82 79 42 23 21 11 6 5 1 0 0 0 0 0 0 0 0 0 1 1 0 1 0 0 0 0 0 0 0 0 0 0 0 0 0 0 0 0 0 0 0 0 0 0 0 0 0 0 0 0 0 0 0 
0 0 0 0 0 0 0 0 0 0 0 0 0 0 0 0 0 0 0 0 0 0 3 6 8 14 18 22 33 53 66 66 63 60 51 51 55 66 90 106 107 111 107 93 107 121 140 144 125 117 111 94 110 98 101 89 103 103 100 102 112 133 132 105 112 121 134 108 128 112 94 60 50 54 69 102 87 45 22 17 17 11 6 0 0 0 0 0 0 0 0 0 0 0 1 0 0 0 0 0 0 0 0 0 0 0 0 0 0 0 0 0 0 0 0 0 0 0 0 0 0 0 0 0 0 0 0 0 
0 0 0 0 0 0 0 0 0 0 0 0 0 0 0 0 0 0 0 0 0 0 1 5 8 12 18 20 25 44 61 72 71 66 52 47 52 61 79 94 95 96 89 90 100 124 139 137 121 118 109 88 96 94 96 90 104 112 115 112 108 122 110 95 83 102 123 126 121 100 89 63 49 53 77 110 88 49 24 19 18 11 6 0 0 0 0 0 0 0 0 0 0 0 1 0 0 0 0 0 0 0 0 0 0 0 0 0 0 0 0 0 0 0 0 0 0 0 0 0 0 0 0 0 0 0 0 0 
0 0 0 0 0 0 0 0 0 0 0 0 0 0 0 0 0 0 0 0 0 0 0 4 8 9 16 21 23 38 57 73 76 69 56 50 46 53 68 92 88 81 82 88 95 109 123 139 135 122 116 99 102 100 99 96 109 107 122 127 118 129 125 108 96 91 108 115 102 89 73 59 53 59 85 115 87 50 24 19 16 10 5 0 0 0 0 0 0 0 0 0 0 0 1 0 0 0 0 0 0 0 0 0 0 0 0 0 0 0 0 0 0 0 0 0 0 0 0 0 0 0 0 0 0 0 0 0 
0 0 0 0 0 0 0 0 0 0 0 0 0 0 0 0 0 0 0 0 0 0 0 2 6 9 12 19 22 32 48 68 77 71 60 53 47 52 57 62 68 76 82 90 97 104 115 126 147 135 119 106 105 102 95 94 101 100 112 126 128 153 142 111 98 89 97 105 106 95 76 60 55 63 91 116 82 49 26 18 14 10 3 0 0 0 0 0 0 0 0 0 0 0 1 0 0 0 0 0 0 0 0 0 0 0 0 0 0 0 0 0 0 0 0 0 0 0 0 0 0 0 0 0 0 0 0 0 
0 0 0 0 0 0 0 0 0 0 0 0 0 0 0 0 0 0 0 0 0 0 0 0 4 7 10 15 20 27 43 59 81 76 64 59 53 50 48 56 63 70 82 89 94 97 105 111 134 125 118 108 102 100 92 91 96 100 109 117 128 137 125 104 95 96 94 88 93 94 79 68 62 66 91 110 80 51 25 16 14 8 2 0 0 0 0 0 0 0 0 0 0 0 1 0 0 0 0 0 0 0 0 0 0 0 0 0 0 0 0 0 0 0 0 0 0 0 0 0 0 0 0 0 0 0 0 0 
0 0 0 0 0 0 0 0 0 0 0 0 0 0 0 0 0 0 0 0 0 0 0 0 1 4 8 12 18 24 41 53 77 74 70 67 59 51 49 56 60 66 82 93 96 95 96 94 102 112 121 108 99 100 95 91 96 104 110 108 119 116 112 99 94 97 97 84 75 72 67 64 67 75 92 104 77 43 19 15 14 7 1 0 0 0 0 0 0 0 0 0 0 0 1 0 0 0 0 0 0 0 0 0 0 0 0 0 0 0 0 0 0 0 0 0 0 0 0 0 0 0 0 0 0 0 0 0 
0 0 0 0 0 0 0 0 0 0 0 0 0 0 0 0 0 0 0 0 0 0 0 0 0 4 5 11 14 19 33 51 65 68 72 69 62 54 52 51 57 66 79 88 91 93 94 87 84 97 115 105 94 92 93 97 97 102 100 105 113 110 103 92 89 89 90 79 72 63 60 66 73 79 96 84 47 23 17 16 15 7 0 0 0 0 0 0 0 0 0 0 0 0 1 0 0 0 0 0 0 0 0 0 0 0 0 0 0 0 0 0 0 0 0 0 0 0 0 0 0 0 0 0 0 0 0 0 
0 0 0 0 0 0 0 0 0 0 0 0 0 0 0 0 0 0 0 0 0 0 0 0 0 2 4 8 14 17 20 32 40 43 64 71 65 57 56 49 53 63 72 74 81 90 92 87 83 95 116 111 97 93 96 95 95 98 102 100 103 100 95 88 85 81 76 70 70 61 59 68 74 83 90 41 17 16 17 17 15 7 0 0 0 0 0 0 0 0 0 0 0 0 1 0 0 0 0 0 0 0 0 0 0 0 0 0 0 0 0 0 0 0 0 0 0 0 0 0 0 0 0 0 0 0 0 0 
0 0 0 0 0 0 0 0 0 0 0 0 0 0 0 0 0 0 0 0 0 0 0 0 0 0 4 4 11 16 19 19 18 15 28 69 72 66 63 58 56 57 63 66 73 80 85 86 88 100 102 106 99 90 85 89 99 101 99 95 98 98 97 87 79 75 63 67 68 64 66 76 79 84 62 23 15 15 16 17 13 6 0 0 0 0 0 0 0 0 0 0 0 0 1 0 0 0 0 0 0 0 0 0 0 0 0 0 0 0 0 0 0 0 0 0 0 0 0 0 0 0 0 0 0 0 0 0 
0 0 0 0 0 0 0 0 0 0 0 0 0 0 0 0 0 0 0 0 0 0 0 0 0 0 1 4 7 13 17 18 17 17 12 33 66 73 69 64 63 62 62 68 76 75 78 86 100 105 95 99 102 97 90 91 101 104 100 93 95 101 105 92 86 78 72 75 72 72 77 83 81 66 32 19 13 14 16 16 11 5 0 0 0 0 0 0 0 0 0 0 0 0 1 0 0 0 0 0 0 0 0 0 0 0 0 0 0 0 0 0 0 0 0 0 0 0 0 0 0 0 0 0 0 0 0 0 
0 0 0 0 0 0 0 0 0 0 0 0 0 0 0 0 0 0 0 0 0 0 0 0 0 0 0 3 6 9 15 18 16 17 12 12 32 63 76 77 73 68 69 77 85 86 86 86 94 98 95 100 102 98 94 103 113 114 112 105 100 108 106 92 86 82 77 81 82 85 89 85 66 34 24 17 12 14 16 14 10 5 0 0 0 0 0 0 0 0 0 0 0 0 1 0 0 0 0 0 0 0 0 0 0 0 0 0 0 0 0 0 0 0 0 0 0 0 0 0 0 0 0 0 0 0 0 0 
0 0 0 0 0 0 0 0 0 0 0 0 0 0 0 0 0 0 0 0 0 0 0 0 0 0 0 2 4 7 11 17 17 17 12 12 16 30 58 75 79 82 81 82 94 99 89 88 90 99 98 98 103 101 98 110 115 114 116 111 98 102 108 101 91 91 92 89 92 90 85 66 35 26 23 16 13 15 15 13 9 5 0 0 0 0 0 0 0 0 0 0 0 0 1 0 0 0 0 0 0 0 0 0 0 0 0 0 0 0 0 0 0 0 0 0 0 0 0 0 0 0 0 0 0 0 0 0 
0 0 0 0 0 0 0 0 0 0 0 0 0 0 0 0 0 0 0 0 0 0 0 0 0 0 0 0 4 6 8 15 16 17 13 11 15 21 29 50 70 82 86 90 102 109 101 96 101 107 101 97 98 105 108 113 117 111 119 122 110 104 115 110 103 101 100 94 90 81 58 34 28 26 22 16 14 14 14 12 9 5 0 0 0 0 0 0 0 0 0 0 0 0 1 0 0 0 0 0 0 0 0 0 0 0 0 0 0 0 0 0 0 0 0 0 0 0 0 0 0 0 0 0 0 0 0 0 
0 0 0 0 0 0 0 0 0 0 0 0 0 0 0 0 0 0 0 0 0 0 0 0 0 0 0 0 1 7 6 12 15 16 14 10 12 20 25 29 37 56 74 87 104 115 107 105 108 110 110 105 107 106 100 104 107 109 116 121 118 109 116 119 113 106 99 90 71 47 31 29 27 24 20 16 13 14 13 12 8 4 0 0 0 0 0 0 0 0 0 0 0 0 0 0 0 0 0 0 0 0 0 0 0 0 0 0 0 0 0 0 0 0 0 0 0 0 0 0 0 0 0 0 0 0 0 0 
0 0 0 0 0 0 0 0 0 0 0 0 0 0 0 0 0 0 0 0 0 0 0 0 0 0 0 0 0 6 5 10 13 16 14 11 11 19 25 29 31 33 40 57 83 95 98 100 101 107 117 116 111 103 99 100 101 108 117 110 114 118 119 117 109 99 82 60 42 38 29 28 26 23 17 15 12 14 13 11 8 3 0 0 0 0 0 0 0 0 0 0 0 0 1 0 0 0 0 0 0 0 0 0 0 0 0 0 0 0 0 0 0 0 0 0 0 0 0 0 0 0 0 0 0 0 0 0 
0 0 0 0 0 0 0 0 0 0 0 0 0 0 0 0 0 0 0 0 0 0 0 0 0 0 0 0 0 4 6 8 12 15 14 11 11 18 25 28 31 32 32 37 49 66 78 86 89 93 107 109 107 105 106 107 107 110 119 115 115 108 106 98 87 68 54 48 41 37 28 28 26 22 16 14 14 14 14 12 8 3 0 0 0 0 0 0 0 0 0 0 0 0 0 0 0 0 0 0 0 0 0 0 0 0 0 0 0 0 0 0 0 0 0 0 0 0 0 0 0 0 0 0 0 0 0 0 
